<svg width="91" height="16" viewBox="0 0 91 16" fill="none" xmlns="http://www.w3.org/2000/svg">
<path d="M0.100852 15.5V0.954545H6.10938C7.19839 0.954545 8.13826 1.15104 8.92898 1.54403C9.72443 1.93229 10.3376 2.491 10.7685 3.22017C11.1993 3.9446 11.4148 4.80398 11.4148 5.7983C11.4148 6.80682 11.1946 7.66383 10.7543 8.36932C10.3139 9.07008 9.68892 9.60511 8.87926 9.97443C8.0696 10.339 7.1108 10.5213 6.00284 10.5213H2.20312V7.75142H5.34943C5.87974 7.75142 6.32244 7.68276 6.67756 7.54545C7.03741 7.40341 7.30966 7.19034 7.49432 6.90625C7.67898 6.61742 7.77131 6.24811 7.77131 5.7983C7.77131 5.34848 7.67898 4.9768 7.49432 4.68324C7.30966 4.38494 7.03741 4.16241 6.67756 4.01562C6.31771 3.86411 5.875 3.78835 5.34943 3.78835H3.61648V15.5H0.100852ZM8.28977 8.85227L11.9119 15.5H8.0767L4.52557 8.85227H8.28977ZM18.2205 15.706C17.0747 15.706 16.0898 15.4716 15.266 15.0028C14.4469 14.5294 13.8147 13.8712 13.3697 13.0284C12.9293 12.1809 12.7092 11.1984 12.7092 10.081C12.7092 8.95881 12.9293 7.97633 13.3697 7.13352C13.8147 6.28598 14.4469 5.62784 15.266 5.15909C16.0898 4.68561 17.0747 4.44886 18.2205 4.44886C19.3664 4.44886 20.3488 4.68561 21.168 5.15909C21.9918 5.62784 22.6239 6.28598 23.0643 7.13352C23.5094 7.97633 23.7319 8.95881 23.7319 10.081C23.7319 11.1984 23.5094 12.1809 23.0643 13.0284C22.6239 13.8712 21.9918 14.5294 21.168 15.0028C20.3488 15.4716 19.3664 15.706 18.2205 15.706ZM18.2418 13.0852C18.6585 13.0852 19.0112 12.9574 19.3001 12.7017C19.5889 12.446 19.8091 12.0909 19.9606 11.6364C20.1168 11.1818 20.195 10.6562 20.195 10.0597C20.195 9.4536 20.1168 8.9233 19.9606 8.46875C19.8091 8.0142 19.5889 7.65909 19.3001 7.40341C19.0112 7.14773 18.6585 7.01989 18.2418 7.01989C17.811 7.01989 17.4464 7.14773 17.1481 7.40341C16.8545 7.65909 16.6296 8.0142 16.4734 8.46875C16.3219 8.9233 16.2461 9.4536 16.2461 10.0597C16.2461 10.6562 16.3219 11.1818 16.4734 11.6364C16.6296 12.0909 16.8545 12.446 17.1481 12.7017C17.4464 12.9574 17.811 13.0852 18.2418 13.0852ZM28.0749 4.59091L29.8718 8.18466L31.7326 4.59091H35.234L32.1871 10.0455L35.3477 15.5H31.8746L29.8718 11.8778L27.9187 15.5H24.396L27.5636 10.0455L24.5522 4.59091H28.0749Z" fill="#4162BF"/>
<path d="M46.3438 7.92188L43.1548 8.0071C43.1217 7.77983 43.0317 7.5786 42.8849 7.40341C42.7382 7.22348 42.5464 7.08381 42.3097 6.98438C42.0777 6.88021 41.8078 6.82812 41.5 6.82812C41.0975 6.82812 40.7543 6.90862 40.4702 7.0696C40.1908 7.23059 40.0535 7.44839 40.0582 7.72301C40.0535 7.93608 40.1387 8.12074 40.3139 8.27699C40.4938 8.43324 40.8134 8.55871 41.2727 8.65341L43.375 9.05114C44.464 9.25947 45.2737 9.60511 45.804 10.0881C46.339 10.571 46.6089 11.2102 46.6136 12.0057C46.6089 12.7538 46.3864 13.4048 45.946 13.9588C45.5104 14.5128 44.9138 14.9437 44.1562 15.2514C43.3987 15.5545 42.5322 15.706 41.5568 15.706C39.9991 15.706 38.7704 15.3864 37.8707 14.7472C36.9759 14.1032 36.4645 13.2415 36.3366 12.1619L39.767 12.0767C39.8428 12.4744 40.0393 12.7775 40.3565 12.9858C40.6738 13.1941 41.0786 13.2983 41.571 13.2983C42.0161 13.2983 42.3783 13.2154 42.6577 13.0497C42.937 12.884 43.0791 12.6638 43.0838 12.3892C43.0791 12.143 42.9702 11.9465 42.7571 11.7997C42.544 11.6482 42.2102 11.5298 41.7557 11.4446L39.8523 11.0824C38.7585 10.8835 37.9441 10.5166 37.4091 9.98153C36.8741 9.44176 36.6089 8.75521 36.6136 7.92188C36.6089 7.19271 36.803 6.57008 37.196 6.05398C37.589 5.53314 38.1477 5.13542 38.8722 4.8608C39.5966 4.58617 40.4512 4.44886 41.4361 4.44886C42.9134 4.44886 44.0781 4.759 44.9304 5.37926C45.7827 5.99479 46.2538 6.84233 46.3438 7.92188ZM54.4812 4.59091V7.14773H47.5991V4.59091H54.4812ZM49.0408 1.97727H52.5138V12.0696C52.5138 12.2827 52.547 12.4555 52.6133 12.5881C52.6843 12.7159 52.7861 12.8082 52.9187 12.8651C53.0513 12.9171 53.2099 12.9432 53.3945 12.9432C53.5271 12.9432 53.6668 12.9313 53.8136 12.9077C53.9651 12.8793 54.0787 12.8556 54.1545 12.8366L54.68 15.3438C54.5143 15.3911 54.2799 15.4503 53.9769 15.5213C53.6786 15.5923 53.3211 15.6373 52.9045 15.6562C52.0901 15.6941 51.3917 15.5994 50.8093 15.3722C50.2317 15.1402 49.7889 14.7803 49.4812 14.2926C49.1781 13.8049 49.0314 13.1918 49.0408 12.4531V1.97727ZM61.2354 15.706C60.0943 15.706 59.1095 15.4811 58.2809 15.0312C57.457 14.5767 56.8226 13.9304 56.3775 13.0923C55.9371 12.2495 55.717 11.2481 55.717 10.0881C55.717 8.96117 55.9395 7.97633 56.3846 7.13352C56.8297 6.28598 57.457 5.62784 58.2667 5.15909C59.0763 4.68561 60.0304 4.44886 61.1289 4.44886C61.9054 4.44886 62.6156 4.5696 63.2596 4.81108C63.9035 5.05256 64.4599 5.41004 64.9286 5.88352C65.3974 6.35701 65.762 6.94176 66.0224 7.63778C66.2828 8.32907 66.413 9.12216 66.413 10.017V10.8835H56.9315V8.86648H63.1815C63.1767 8.49716 63.0891 8.16809 62.9187 7.87926C62.7482 7.59044 62.5138 7.36553 62.2156 7.20455C61.922 7.03883 61.5835 6.95597 61.1999 6.95597C60.8117 6.95597 60.4637 7.04356 60.1559 7.21875C59.8481 7.3892 59.6043 7.62358 59.4244 7.92188C59.2444 8.21544 59.1497 8.54924 59.1403 8.9233V10.9759C59.1403 11.4209 59.2279 11.8116 59.4031 12.1477C59.5782 12.4792 59.8268 12.7372 60.1488 12.9219C60.4708 13.1065 60.8543 13.1989 61.2994 13.1989C61.6071 13.1989 61.8865 13.1562 62.1374 13.071C62.3884 12.9858 62.6038 12.8603 62.7837 12.6946C62.9637 12.5289 63.0986 12.3253 63.1886 12.0838L66.3775 12.1761C66.2449 12.8911 65.9537 13.5137 65.5039 14.044C65.0588 14.5696 64.4741 14.9792 63.7496 15.2727C63.0252 15.5616 62.1871 15.706 61.2354 15.706ZM68.1868 15.5V4.59091H71.6598V15.5H68.1868ZM69.9268 3.3196C69.4392 3.3196 69.0201 3.15862 68.6697 2.83665C68.3194 2.50994 68.1442 2.11695 68.1442 1.65767C68.1442 1.20312 68.3194 0.814867 68.6697 0.492898C69.0201 0.166193 69.4392 0.00284004 69.9268 0.00284004C70.4193 0.00284004 70.8383 0.166193 71.1839 0.492898C71.5343 0.814867 71.7095 1.20312 71.7095 1.65767C71.7095 2.11695 71.5343 2.50994 71.1839 2.83665C70.8383 3.15862 70.4193 3.3196 69.9268 3.3196ZM77.3434 9.27841V15.5H73.8704V4.59091H77.1729V6.59375H77.2937C77.5352 5.92614 77.9471 5.40294 78.5295 5.02415C79.1119 4.64062 79.8055 4.44886 80.6104 4.44886C81.3775 4.44886 82.0427 4.62169 82.6062 4.96733C83.1744 5.30824 83.6147 5.78646 83.9272 6.40199C84.2444 7.01278 84.4007 7.72775 84.396 8.54688V15.5H80.9229V9.22869C80.9277 8.62263 80.7738 8.14915 80.4613 7.80824C80.1535 7.46733 79.725 7.29688 79.1758 7.29688C78.8112 7.29688 78.4892 7.37737 78.2099 7.53835C77.9353 7.6946 77.7222 7.91951 77.5707 8.21307C77.4239 8.50663 77.3481 8.86174 77.3434 9.27841ZM88.4993 15.706C87.9879 15.706 87.55 15.526 87.1854 15.1662C86.8255 14.8063 86.648 14.3707 86.6527 13.8594C86.648 13.3575 86.8255 12.929 87.1854 12.5739C87.55 12.214 87.9879 12.0341 88.4993 12.0341C88.9822 12.0341 89.4084 12.214 89.7777 12.5739C90.1518 12.929 90.3411 13.3575 90.3459 13.8594C90.3411 14.2003 90.2512 14.5104 90.076 14.7898C89.9055 15.0691 89.6806 15.2917 89.4013 15.4574C89.1267 15.6231 88.826 15.706 88.4993 15.706Z" fill="#151519"/>
</svg>
